<svg width="323" height="108" viewBox="0 0 323 108" fill="none" xmlns="http://www.w3.org/2000/svg">
<path d="M70.9886 78C69.9459 80.7 68.1885 82.4999 66.1929 82.4999H40.9936C38.9681 82.4999 37.2405 80.7 36.1981 78H3.0459V83.25C3.19835 85.1738 4.096 86.9601 5.545 88.223C6.994 89.4859 8.87808 90.1242 10.7903 90H96.575C98.4872 90.1242 100.371 89.4859 101.82 88.223C103.269 86.9601 104.167 85.1738 104.319 83.25V78H70.9886Z" fill="white"/>
<path d="M20.9177 30.0001H70.5418C68.2823 26.4115 67.0839 22.2493 67.0866 18H16.4497C15.2384 18.0315 14.0886 18.5445 13.2514 19.427C12.4142 20.3095 11.9578 21.4897 11.9819 22.7101V72H20.9177V30.0001Z" fill="white"/>
<path d="M95.3837 39.6597C92.481 40.4961 89.4349 40.7007 86.4478 40.2596V71.9996H95.3837V39.6597Z" fill="white"/>
<path d="M89.4264 33C97.6516 33 104.32 26.2842 104.32 18C104.32 9.71573 97.6516 3 89.4264 3C81.2011 3 74.5332 9.71573 74.5332 18C74.5332 26.2842 81.2011 33 89.4264 33Z" fill="#7F56C4"/>
<path d="M143.955 41.309C142 41.309 140.312 40.8999 138.89 40.0817C137.477 39.255 136.39 38.0874 135.627 36.579C134.866 35.0618 134.486 33.2764 134.486 31.2224C134.486 29.2024 134.866 27.4298 135.627 25.9042C136.398 24.3701 137.473 23.177 138.852 22.3247C140.232 21.4638 141.852 21.0334 143.713 21.0334C144.915 21.0334 146.048 21.2295 147.116 21.6215C148.19 22.005 149.137 22.6017 149.958 23.4113C150.788 24.221 151.439 25.2521 151.913 26.5051C152.387 27.7493 152.624 29.2323 152.624 30.9539V32.3729H136.644V29.2537H148.219C148.211 28.3673 148.02 27.5789 147.648 26.8886C147.276 26.1898 146.756 25.64 146.088 25.2394C145.427 24.8388 144.657 24.6385 143.777 24.6385C142.838 24.6385 142.013 24.8687 141.302 25.3289C140.591 25.7805 140.037 26.3772 139.639 27.1187C139.25 27.8516 139.051 28.657 139.042 29.5349V32.2579C139.042 33.3999 139.25 34.38 139.664 35.1983C140.079 36.0079 140.658 36.6301 141.404 37.0647C142.148 37.4908 143.02 37.7039 144.018 37.7039C144.687 37.7039 145.291 37.6101 145.833 37.4227C146.375 37.2266 146.845 36.9412 147.242 36.5661C147.64 36.1911 147.941 35.7267 148.143 35.1726L152.434 35.6585C152.163 36.8005 151.647 37.7977 150.886 38.6499C150.132 39.4936 149.167 40.1499 147.99 40.6187C146.815 41.0789 145.469 41.309 143.955 41.309ZM168.329 28.1158V31.9255H156.625V28.1158H168.329ZM173.365 40.9254V14.7437H178.074V36.9496H189.523V40.9254H173.365ZM202.039 41.309C200.084 41.309 198.395 40.8999 196.974 40.0817C195.56 39.255 194.472 38.0874 193.711 36.579C192.95 35.0618 192.568 33.2764 192.568 31.2224C192.568 29.2024 192.95 27.4298 193.711 25.9042C194.481 24.3701 195.556 23.177 196.936 22.3247C198.314 21.4638 199.935 21.0334 201.797 21.0334C202.998 21.0334 204.132 21.2295 205.198 21.6215C206.273 22.005 207.221 22.6017 208.042 23.4113C208.871 24.221 209.523 25.2521 209.996 26.5051C210.471 27.7493 210.707 29.2323 210.707 30.9539V32.3729H194.727V29.2537H206.303C206.294 28.3673 206.104 27.5789 205.732 26.8886C205.359 26.1898 204.838 25.64 204.17 25.2394C203.51 24.8388 202.741 24.6385 201.861 24.6385C200.921 24.6385 200.095 24.8687 199.385 25.3289C198.674 25.7805 198.119 26.3772 197.722 27.1187C197.334 27.8516 197.135 28.657 197.126 29.5349V32.2579C197.126 33.3999 197.334 34.38 197.748 35.1983C198.163 36.0079 198.742 36.6301 199.487 37.0647C200.231 37.4908 201.102 37.7039 202.101 37.7039C202.77 37.7039 203.375 37.6101 203.916 37.4227C204.458 37.2266 204.927 36.9412 205.325 36.5661C205.724 36.1911 206.023 35.7267 206.227 35.1726L210.516 35.6585C210.246 36.8005 209.73 37.7977 208.968 38.6499C208.215 39.4936 207.251 40.1499 206.074 40.6187C204.899 41.0789 203.553 41.309 202.039 41.309ZM220.205 41.3217C218.969 41.3217 217.856 41.1002 216.867 40.657C215.884 40.2053 215.106 39.5405 214.531 38.6627C213.965 37.7849 213.681 36.7025 213.681 35.4156C213.681 34.3075 213.884 33.3914 214.29 32.667C214.696 31.9426 215.25 31.363 215.952 30.9283C216.655 30.4937 217.446 30.1656 218.326 29.9439C219.215 29.7139 220.133 29.5476 221.081 29.4454C222.223 29.3261 223.15 29.2196 223.86 29.1258C224.571 29.0234 225.088 28.8701 225.408 28.6656C225.739 28.4525 225.904 28.1244 225.904 27.6812V27.6044C225.904 26.6414 225.62 25.8957 225.054 25.3672C224.486 24.8388 223.67 24.5746 222.603 24.5746C221.479 24.5746 220.586 24.8218 219.925 25.3161C219.274 25.8104 218.835 26.3943 218.606 27.0676L214.315 26.454C214.654 25.2607 215.212 24.2635 215.99 23.4624C216.77 22.6528 217.722 22.0477 218.846 21.647C219.972 21.238 221.216 21.0334 222.579 21.0334C223.517 21.0334 224.452 21.1442 225.384 21.3658C226.315 21.5874 227.165 21.9539 227.935 22.4652C228.705 22.9681 229.322 23.6541 229.788 24.5235C230.263 25.3928 230.499 26.4795 230.499 27.7834V40.9254H226.082V38.2281H225.929C225.65 38.7735 225.257 39.2849 224.749 39.7622C224.25 40.2309 223.619 40.6101 222.857 40.8999C222.105 41.1812 221.22 41.3217 220.205 41.3217ZM221.398 37.9212C222.321 37.9212 223.12 37.738 223.797 37.3716C224.473 36.9965 224.994 36.5022 225.359 35.8886C225.73 35.2749 225.917 34.6059 225.917 33.8815V31.5675C225.773 31.6868 225.527 31.7976 225.181 31.8999C224.842 32.0021 224.462 32.0917 224.038 32.1683C223.616 32.2451 223.196 32.3132 222.781 32.3729C222.367 32.4326 222.007 32.4838 221.702 32.5263C221.017 32.6201 220.404 32.7735 219.862 32.9865C219.321 33.1996 218.893 33.4979 218.58 33.8815C218.267 34.2564 218.11 34.7423 218.11 35.3388C218.11 36.1911 218.419 36.8346 219.037 37.2692C219.655 37.7039 220.442 37.9212 221.398 37.9212ZM235.119 40.9254V21.2892H239.575V24.5619H239.777C240.133 23.4284 240.742 22.5548 241.605 21.9411C242.476 21.319 243.472 21.0079 244.588 21.0079C244.842 21.0079 245.126 21.0206 245.438 21.0462C245.76 21.0633 246.027 21.0931 246.239 21.1358V25.3928C246.044 25.3247 245.735 25.265 245.311 25.2138C244.897 25.1541 244.495 25.1244 244.106 25.1244C243.268 25.1244 242.516 25.3076 241.846 25.6741C241.187 26.032 240.667 26.5306 240.285 27.1698C239.904 27.809 239.715 28.5463 239.715 29.3814V40.9254H235.119ZM253.886 29.4197V40.9254H249.291V21.2892H253.683V24.6257H253.911C254.359 23.5264 255.075 22.6528 256.057 22.005C257.047 21.3573 258.269 21.0334 259.725 21.0334C261.07 21.0334 262.242 21.3232 263.241 21.9028C264.248 22.4823 265.026 23.3218 265.577 24.4212C266.135 25.5207 266.41 26.8545 266.401 28.4226V40.9254H261.807V29.1386C261.807 27.8261 261.468 26.799 260.791 26.0577C260.122 25.3161 259.195 24.9454 258.01 24.9454C257.208 24.9454 256.492 25.1244 255.866 25.4824C255.249 25.8318 254.762 26.3389 254.406 27.0036C254.06 27.6684 253.886 28.4738 253.886 29.4197ZM271.072 40.9254V21.2892H275.667V40.9254H271.072ZM273.382 18.5021C272.654 18.5021 272.029 18.2593 271.503 17.7735C270.979 17.2792 270.717 16.6868 270.717 15.9965C270.717 15.2977 270.979 14.7053 271.503 14.2195C272.029 13.7252 272.654 13.478 273.382 13.478C274.119 13.478 274.745 13.7252 275.262 14.2195C275.786 14.7053 276.047 15.2977 276.047 15.9965C276.047 16.6868 275.786 17.2792 275.262 17.7735C274.745 18.2593 274.119 18.5021 273.382 18.5021ZM284.987 29.4197V40.9254H280.392V21.2892H284.784V24.6257H285.012C285.46 23.5264 286.176 22.6528 287.158 22.005C288.148 21.3573 289.37 21.0334 290.826 21.0334C292.171 21.0334 293.343 21.3232 294.342 21.9028C295.349 22.4823 296.127 23.3218 296.678 24.4212C297.236 25.5207 297.511 26.8545 297.503 28.4226V40.9254H292.908V29.1386C292.908 27.8261 292.569 26.799 291.891 26.0577C291.223 25.3161 290.297 24.9454 289.113 24.9454C288.308 24.9454 287.593 25.1244 286.967 25.4824C286.349 25.8318 285.863 26.3389 285.507 27.0036C285.161 27.6684 284.987 28.4738 284.987 29.4197ZM310.653 48.6983C309.003 48.6983 307.585 48.4724 306.4 48.0206C305.216 47.5774 304.264 46.9809 303.544 46.2309C302.825 45.4809 302.326 44.65 302.047 43.738L306.185 42.7281C306.37 43.1115 306.641 43.4908 306.997 43.8658C307.352 44.2493 307.83 44.5646 308.431 44.8119C309.041 45.0675 309.806 45.1954 310.729 45.1954C312.031 45.1954 313.11 44.8757 313.965 44.2366C314.819 43.6059 315.247 42.5661 315.247 41.1172V37.3971H315.019C314.781 37.8743 314.435 38.3644 313.978 38.8672C313.53 39.3701 312.932 39.792 312.188 40.1328C311.452 40.4738 310.525 40.6442 309.408 40.6442C307.911 40.6442 306.552 40.2906 305.335 39.5832C304.124 38.8672 303.159 37.8019 302.439 36.3872C301.729 34.9638 301.374 33.1826 301.374 31.0434C301.374 28.8871 301.729 27.0676 302.439 25.5846C303.159 24.0931 304.128 22.9639 305.346 22.1968C306.565 21.4213 307.924 21.0334 309.421 21.0334C310.564 21.0334 311.503 21.2295 312.239 21.6215C312.983 22.005 313.576 22.4696 314.016 23.015C314.456 23.5519 314.79 24.059 315.019 24.5363H315.273V21.2892H319.804V41.2451C319.804 42.9241 319.407 44.3132 318.61 45.4127C317.815 46.5122 316.728 47.3346 315.349 47.88C313.969 48.4255 312.404 48.6983 310.653 48.6983ZM310.691 37.0136C311.664 37.0136 312.493 36.7749 313.178 36.2976C313.863 35.8203 314.384 35.1343 314.739 34.2394C315.095 33.3445 315.273 32.2707 315.273 31.0179C315.273 29.7821 315.095 28.6997 314.739 27.7706C314.393 26.8417 313.876 26.1215 313.191 25.6101C312.514 25.0903 311.681 24.8303 310.691 24.8303C309.667 24.8303 308.812 25.0988 308.126 25.6357C307.441 26.1726 306.925 26.9098 306.578 27.8474C306.23 28.7764 306.058 29.8332 306.058 31.0179C306.058 32.2196 306.23 33.2721 306.578 34.1754C306.934 35.0704 307.453 35.7692 308.14 36.2721C308.833 36.7664 309.684 37.0136 310.691 37.0136Z" fill="white"/>
<path d="M135.526 84.3891V58.2074H145.274C147.271 58.2074 148.947 58.5823 150.301 59.3323C151.663 60.0823 152.691 61.1136 153.386 62.4261C154.088 63.73 154.438 65.213 154.438 66.8749C154.438 68.5539 154.088 70.0453 153.386 71.3494C152.683 72.6533 151.646 73.6803 150.276 74.4303C148.904 75.1718 147.216 75.5425 145.211 75.5425H138.75V71.6434H144.576C145.743 71.6434 146.701 71.4388 147.445 71.0297C148.19 70.6206 148.739 70.0581 149.095 69.3423C149.459 68.6263 149.64 67.8039 149.64 66.8749C149.64 65.946 149.459 65.1278 149.095 64.4204C148.739 63.713 148.185 63.1632 147.432 62.7713C146.688 62.3706 145.728 62.1704 144.551 62.1704H140.235V84.3891H135.526ZM165.602 58.2074V84.3891H161.007V58.2074H165.602ZM178.617 84.7854C177.382 84.7854 176.269 84.5638 175.279 84.1206C174.298 83.6689 173.519 83.0042 172.943 82.1263C172.377 81.2485 172.093 80.1661 172.093 78.8792C172.093 77.7712 172.296 76.855 172.703 76.1306C173.109 75.4062 173.663 74.8266 174.365 74.392C175.068 73.9573 175.86 73.6292 176.74 73.4076C177.628 73.1775 178.546 73.0113 179.494 72.9091C180.635 72.7897 181.562 72.6832 182.274 72.5894C182.984 72.4871 183.5 72.3338 183.822 72.1292C184.152 71.9161 184.316 71.588 184.316 71.1448V71.0681C184.316 70.105 184.034 69.3593 183.466 68.8309C182.899 68.3025 182.083 68.0383 181.017 68.0383C179.891 68.0383 178.998 68.2855 178.339 68.7798C177.686 69.2741 177.247 69.8579 177.018 70.5312L172.728 69.9176C173.066 68.7243 173.625 67.7272 174.404 66.926C175.182 66.1164 176.134 65.5113 177.26 65.1107C178.385 64.7016 179.628 64.497 180.991 64.497C181.931 64.497 182.866 64.6078 183.796 64.8295C184.727 65.051 185.578 65.4175 186.347 65.9288C187.117 66.4317 187.736 67.1178 188.202 67.9872C188.675 68.8564 188.912 69.9431 188.912 71.247V84.3891H184.494V81.6917H184.343C184.063 82.2371 183.669 82.7485 183.162 83.2258C182.662 83.6946 182.032 84.0738 181.271 84.3635C180.518 84.6448 179.634 84.7854 178.617 84.7854ZM179.811 81.3848C180.733 81.3848 181.532 81.2016 182.21 80.8352C182.887 80.4601 183.408 79.9658 183.771 79.3522C184.144 78.7386 184.329 78.0695 184.329 77.3451V75.0311C184.186 75.1505 183.94 75.2612 183.593 75.3636C183.255 75.4658 182.874 75.5553 182.45 75.632C182.028 75.7088 181.609 75.7769 181.195 75.8365C180.779 75.8962 180.419 75.9474 180.116 75.99C179.43 76.0837 178.816 76.2372 178.275 76.4501C177.733 76.6632 177.306 76.9616 176.993 77.3451C176.679 77.7201 176.524 78.2059 176.524 78.8024C176.524 79.6547 176.832 80.2982 177.45 80.7329C178.068 81.1675 178.854 81.3848 179.811 81.3848ZM205.948 64.7528V68.3324H194.74V64.7528H205.948ZM197.507 60.0482H202.102V78.4829C202.102 79.105 202.195 79.5823 202.382 79.9147C202.576 80.2386 202.831 80.4601 203.143 80.5794C203.456 80.6988 203.804 80.7584 204.184 80.7584C204.472 80.7584 204.733 80.7371 204.971 80.6945C205.216 80.6519 205.403 80.6135 205.53 80.5794L206.304 84.1973C206.058 84.2826 205.708 84.3763 205.25 84.4786C204.801 84.5808 204.252 84.6405 203.6 84.6576C202.449 84.6917 201.413 84.517 200.49 84.1334C199.568 83.7413 198.836 83.1363 198.294 82.3181C197.761 81.4999 197.499 80.4772 197.507 79.25V60.0482ZM222.347 64.7528V68.3324H210.822V64.7528H222.347ZM213.703 84.3891V62.899C213.703 61.578 213.974 60.4787 214.515 59.6008C215.065 58.7229 215.802 58.0667 216.724 57.6321C217.647 57.1973 218.671 56.98 219.795 56.98C220.592 56.98 221.298 57.044 221.915 57.1717C222.534 57.2996 222.99 57.4147 223.287 57.517L222.373 61.0965C222.178 61.0368 221.932 60.9772 221.637 60.9175C221.34 60.8494 221.01 60.8153 220.647 60.8153C219.791 60.8153 219.186 61.0241 218.832 61.4417C218.484 61.8508 218.311 62.4389 218.311 63.2059V84.3891H213.703ZM236.398 84.7726C234.494 84.7726 232.844 84.3507 231.447 83.507C230.052 82.6633 228.968 81.4828 228.197 79.9658C227.436 78.4488 227.056 76.676 227.056 74.6476C227.056 72.6192 227.436 70.8423 228.197 69.3167C228.968 67.791 230.052 66.6065 231.447 65.7628C232.844 64.9189 234.494 64.497 236.398 64.497C238.302 64.497 239.952 64.9189 241.347 65.7628C242.744 66.6065 243.823 67.791 244.584 69.3167C245.354 70.8423 245.74 72.6192 245.74 74.6476C245.74 76.676 245.354 78.4488 244.584 79.9658C243.823 81.4828 242.744 82.6633 241.347 83.507C239.952 84.3507 238.302 84.7726 236.398 84.7726ZM236.423 81.0653C237.456 81.0653 238.319 80.7798 239.012 80.2087C239.706 79.6292 240.223 78.8537 240.562 77.8821C240.908 76.9105 241.082 75.8281 241.082 74.6348C241.082 73.4331 240.908 72.3465 240.562 71.3749C240.223 70.3948 239.706 69.6149 239.012 69.0354C238.319 68.4559 237.456 68.1661 236.423 68.1661C235.365 68.1661 234.485 68.4559 233.782 69.0354C233.089 69.6149 232.569 70.3948 232.221 71.3749C231.884 72.3465 231.714 73.4331 231.714 74.6348C231.714 75.8281 231.884 76.9105 232.221 77.8821C232.569 78.8537 233.089 79.6292 233.782 80.2087C234.485 80.7798 235.365 81.0653 236.423 81.0653ZM252.32 84.3891V64.7528H256.776V68.0255H256.978C257.334 66.892 257.943 66.0184 258.806 65.4048C259.679 64.7826 260.673 64.4715 261.789 64.4715C262.043 64.4715 262.327 64.4843 262.639 64.5098C262.961 64.5269 263.228 64.5567 263.44 64.5994V68.8564C263.245 68.7883 262.936 68.7287 262.512 68.6774C262.098 68.6178 261.696 68.588 261.307 68.588C260.47 68.588 259.717 68.7712 259.047 69.1378C258.388 69.4956 257.868 69.9942 257.487 70.6334C257.105 71.2726 256.916 72.0099 256.916 72.845V84.3891H252.32ZM269.173 84.3891V64.7528H273.565V68.0894H273.793C274.199 66.9644 274.873 66.0866 275.812 65.4559C276.751 64.8167 277.871 64.497 279.175 64.497C280.495 64.497 281.607 64.8209 282.514 65.4686C283.428 66.1078 284.07 66.9814 284.442 68.0894H284.645C285.077 66.9984 285.805 66.1292 286.829 65.4814C287.861 64.8253 289.083 64.497 290.497 64.497C292.291 64.497 293.755 65.0681 294.89 66.2102C296.023 67.3522 296.59 69.0184 296.59 71.2087V84.3891H291.983V71.9247C291.983 70.7059 291.661 69.8153 291.018 69.2527C290.374 68.6818 289.588 68.3962 288.657 68.3962C287.548 68.3962 286.681 68.7457 286.055 69.4445C285.438 70.1349 285.128 71.0339 285.128 72.142V84.3891H280.623V71.7329C280.623 70.7186 280.318 69.909 279.709 69.3038C279.107 68.6988 278.32 68.3962 277.347 68.3962C276.688 68.3962 276.086 68.5667 275.545 68.9075C275.004 69.24 274.572 69.713 274.25 70.3267C273.929 70.9317 273.768 71.6391 273.768 72.4487V84.3891H269.173Z" fill="white"/>
</svg>
