<svg width="47" height="46" viewBox="0 0 47 46" fill="none" xmlns="http://www.w3.org/2000/svg">
<path d="M47 23C47 10.2975 36.4787 0 23.5 0C10.5213 0 0 10.2975 0 23C0 35.7025 10.5213 46 23.5 46C36.4787 46 47 35.7025 47 23Z" fill="white"/>
<path fill-rule="evenodd" clip-rule="evenodd" d="M35.0002 23.2615C35.0002 22.446 34.9255 21.6619 34.7866 20.9092H23.7202V25.3576H30.0439C29.7715 26.7951 28.9436 28.0131 27.6992 28.8285V31.714H31.4966C33.7184 29.7119 35.0002 26.7637 35.0002 23.2615Z" fill="#4285F4"/>
<path fill-rule="evenodd" clip-rule="evenodd" d="M23.7195 34.5001C26.892 34.5001 29.5518 33.4703 31.4959 31.7139L27.6985 28.8285C26.6463 29.5185 25.3004 29.9262 23.7195 29.9262C20.6591 29.9262 18.0688 27.9032 17.1448 25.1851H13.2192V28.1646C15.1527 31.923 19.1263 34.5001 23.7195 34.5001Z" fill="#34A853"/>
<path fill-rule="evenodd" clip-rule="evenodd" d="M17.1456 25.185C16.9106 24.495 16.777 23.758 16.777 23C16.777 22.242 16.9106 21.505 17.1456 20.815V17.8354H13.22C12.4242 19.388 11.9702 21.1443 11.9702 23C11.9702 24.8557 12.4242 26.6121 13.22 28.1646L17.1456 25.185Z" fill="#FBBC05"/>
<path fill-rule="evenodd" clip-rule="evenodd" d="M23.7195 16.0739C25.4446 16.0739 26.9935 16.6541 28.2112 17.7937L31.5813 14.4952C29.5464 12.6395 26.8867 11.5 23.7195 11.5C19.1263 11.5 15.1527 14.0771 13.2192 17.8355L17.1448 20.815C18.0688 18.0968 20.6591 16.0739 23.7195 16.0739Z" fill="#EA4335"/>
</svg>
