<svg width="47" height="46" viewBox="0 0 47 46" fill="none" xmlns="http://www.w3.org/2000/svg">
<path d="M0 23C0 35.7025 10.5213 46 23.5 46C36.4787 46 47 35.7025 47 23C47 10.2975 36.4787 0 23.5 0C10.5213 0 0 10.2975 0 23Z" fill="#1DA1F2"/>
<path d="M35.25 15.8125C34.3687 16.2438 33.4875 16.3875 32.4594 16.5312C33.4875 15.9562 34.2219 15.0937 34.5156 13.9437C33.6344 14.5187 32.6062 14.8062 31.4312 15.0938C30.55 14.2312 29.2281 13.6562 27.9062 13.6562C24.8219 13.6562 22.4719 16.5312 23.2063 19.4062C19.2406 19.2625 15.7156 17.3938 13.2188 14.5188C11.8969 16.675 12.6313 19.4062 14.6875 20.8438C13.9531 20.8438 13.2188 20.5563 12.4844 20.2688C12.4844 22.425 14.1 24.4375 16.3031 25.0125C15.5688 25.1562 14.8344 25.3 14.1 25.1562C14.6875 27.025 16.45 28.4625 18.6531 28.4625C16.8906 29.7562 14.2469 30.475 11.75 30.1875C13.9531 31.4813 16.45 32.3438 19.0938 32.3438C28.0531 32.3438 33.0469 25.0125 32.7531 18.2562C33.7812 17.6812 34.6625 16.8187 35.25 15.8125Z" fill="white"/>
</svg>
